<svg version="1.1" id="Layer_1" xmlns="http://www.w3.org/2000/svg" xmlns:xlink="http://www.w3.org/1999/xlink" x="0px" y="0px"
	 width="100%" viewBox="0 0 500 500" enable-background="new 0 0 500 500" xml:space="preserve">
<path fill="#FEFEFE" opacity="1.000000" stroke="none" 
	d="
M290.000000,501.000000 
	C193.333359,501.000000 97.166710,501.000000 1.000051,501.000000 
	C1.000034,334.333405 1.000034,167.666794 1.000017,1.000141 
	C167.666565,1.000094 334.333130,1.000094 500.999756,1.000047 
	C500.999847,167.666519 500.999847,334.333038 500.999939,500.999786 
	C430.833344,501.000000 360.666656,501.000000 290.000000,501.000000 
M81.085190,386.499969 
	C81.085190,410.275635 81.085190,434.051300 81.085190,457.836426 
	C127.486145,457.836426 173.367065,457.836426 218.909851,457.836426 
	C218.909851,449.537781 219.187210,441.561249 218.855499,433.610107 
	C218.012192,413.395905 215.104172,393.569641 207.155121,374.727936 
	C199.733688,357.136871 188.245667,342.308502 175.700394,328.242401 
	C151.736572,301.373413 132.899323,271.591644 121.744705,237.094635 
	C112.388168,208.158417 106.723137,178.499954 103.129532,148.404007 
	C101.362511,133.605438 100.246979,118.729080 98.836624,103.887924 
	C100.571671,104.960922 101.391808,106.311737 102.171951,107.685272 
	C139.918854,174.143082 177.502106,240.694885 215.564209,306.971680 
	C221.894974,317.995270 229.489349,328.551544 237.932373,338.050446 
	C256.028839,358.410065 279.961609,369.669800 305.381805,377.964386 
	C325.259277,384.450378 345.515015,389.866486 365.122009,397.066833 
	C384.634094,404.232330 398.295502,417.783325 402.637329,438.966431 
	C403.923035,445.239105 404.420654,451.673248 405.271210,457.972687 
	C410.544006,457.972687 415.491211,457.972687 420.648682,457.972687 
	C420.648682,314.573273 420.648682,171.369400 420.648682,28.174862 
	C374.502655,28.174862 328.624634,28.174862 282.473114,28.174862 
	C282.317627,47.839230 282.883942,67.058952 286.482971,86.158539 
	C291.816406,114.462715 306.620331,137.564194 325.220978,158.701859 
	C348.400726,185.043137 367.080292,213.996460 378.353333,247.533752 
	C389.337738,280.212250 395.238373,313.859833 398.983887,347.984314 
	C399.460388,352.325439 399.766479,356.685272 400.256439,362.221924 
	C394.582367,350.598145 389.971344,340.092682 384.477875,330.070984 
	C350.061432,267.285400 315.488892,204.585236 280.877014,141.907043 
	C269.623566,121.528328 258.348114,101.163048 243.189026,83.255470 
	C220.117355,56.000687 191.617828,38.187889 156.201355,31.694765 
	C131.588089,27.182262 106.788368,27.817207 81.979599,27.994398 
	C81.737968,27.996122 81.499107,28.385178 81.085289,28.743979 
	C81.085289,147.566849 81.085289,266.533386 81.085190,386.499969 
z"/>
<path fill="#010101" opacity="1.000000" stroke="none" 
	d="
M81.085236,385.999939 
	C81.085289,266.533386 81.085289,147.566849 81.085289,28.743979 
	C81.499107,28.385178 81.737968,27.996122 81.979599,27.994398 
	C106.788368,27.817207 131.588089,27.182262 156.201355,31.694765 
	C191.617828,38.187889 220.117355,56.000687 243.189026,83.255470 
	C258.348114,101.163048 269.623566,121.528328 280.877014,141.907043 
	C315.488892,204.585236 350.061432,267.285400 384.477875,330.070984 
	C389.971344,340.092682 394.582367,350.598145 400.256439,362.221924 
	C399.766479,356.685272 399.460388,352.325439 398.983887,347.984314 
	C395.238373,313.859833 389.337738,280.212250 378.353333,247.533752 
	C367.080292,213.996460 348.400726,185.043137 325.220978,158.701859 
	C306.620331,137.564194 291.816406,114.462715 286.482971,86.158539 
	C282.883942,67.058952 282.317627,47.839230 282.473114,28.174862 
	C328.624634,28.174862 374.502655,28.174862 420.648682,28.174862 
	C420.648682,171.369400 420.648682,314.573273 420.648682,457.972687 
	C415.491211,457.972687 410.544006,457.972687 405.271210,457.972687 
	C404.420654,451.673248 403.923035,445.239105 402.637329,438.966431 
	C398.295502,417.783325 384.634094,404.232330 365.122009,397.066833 
	C345.515015,389.866486 325.259277,384.450378 305.381805,377.964386 
	C279.961609,369.669800 256.028839,358.410065 237.932373,338.050446 
	C229.489349,328.551544 221.894974,317.995270 215.564209,306.971680 
	C177.502106,240.694885 139.918854,174.143082 102.171951,107.685272 
	C101.391808,106.311737 100.571671,104.960922 98.836624,103.887924 
	C100.246979,118.729080 101.362511,133.605438 103.129532,148.404007 
	C106.723137,178.499954 112.388168,208.158417 121.744705,237.094635 
	C132.899323,271.591644 151.736572,301.373413 175.700394,328.242401 
	C188.245667,342.308502 199.733688,357.136871 207.155121,374.727936 
	C215.104172,393.569641 218.012192,413.395905 218.855499,433.610107 
	C219.187210,441.561249 218.909851,449.537781 218.909851,457.836426 
	C173.367065,457.836426 127.486145,457.836426 81.085190,457.836426 
	C81.085190,434.051300 81.085190,410.275635 81.085236,385.999939 
z"/>
</svg>